<svg xmlns="http://www.w3.org/2000/svg" version="1.1" viewBox="0 0 200 200">
<path fill="#fff" d="M100,3.125E-7c-55.228,0-100,44.772-100,100,0,55.23,44.772,100,100,100,55.23,0,100-44.77,100-100,0-55.228-44.77-100-100-100z"/>
<path fill="#f9f9f9" d="M100,3.125E-7c-55.228,0-100,44.772-100,100,0,55.23,44.772,100,100,100,55.23,0,100-44.77,100-100,0-55.228-44.77-100-100-100zm68.85,150.26l2.1474,0.32051,2.1474,0.32051,1.1218,1.7949,1.1218,1.7949-1.1538,1.7949-1.1538,1.7949-2.4359-0.12821-2.4359-0.0961-0.60898,0.96154-0.64102,0.96154-0.64103-1.6667-0.64103-1.6987,1.5705-3.0769,1.6026-3.0769zm-83.205,2.8205,1.4744,1.9872,1.4744,1.9872,1.3782-1.8269,1.3782-1.859,4.3269,0.70513,4.3269,0.67308,0,2.4679,0,2.4359-2.5641-0.64102-2.5641-0.64103-0.09615,1.9231c-0.05012,1.0483,0.0042,4.0833,0.09615,6.7628l0.16026,4.8718-0.83333-0.0961c-0.4649-0.0471-1.707-1.0041-2.7564-2.1475l-1.9231-2.0833,1.0897-2.4038,1.1218-2.4359-1.0577-0.64103-1.0256-0.64102-1.4744,0.57692-1.4744,0.57692,0.99359,2.5962,0.99359,2.5962h-0.86538c-0.46271,0-1.6592-0.9418-2.6923-2.0833l-1.891-2.0513,1.2179-1.218,1.1859-1.2179v-4.0705-4.1026z"/>
<path fill="#eaeaea" d="M100,3.125E-7c-55.228,0-100,44.772-100,100,0,55.23,44.772,100,100,100,55.23,0,100-44.77,100-100,0-37.341-20.47-69.909-50.8-87.083l0.99359,0.76923-1.5064,1.9551-1.4744,1.9231-0.64103-2.3077-0.64102-2.3077h-0.92949c-0.50597,0-1.755,0.5405-2.7885,1.1859l-1.891,1.1538-3.4936-2.4359c-1.9204-1.3486-3.6568-2.563-3.8782-2.6923-0.22142-0.1293,0.18387-0.93509,0.89743-1.7949l1.282-1.5705h1.1859c-11.26-4.3896-23.51-6.7946-36.32-6.7946zm37.44,105.77l0.54487,5.1282c0.2921,2.8205,0.88565,5.7142,1.3462,6.4423l0.86539,1.3462,1.9551-0.64102,1.9872-0.60898,0.64103,3.141,0.60897,3.141h0.89744,0.89744v4.6474,4.6154l1.1859,1.891,1.1538,1.859-2.0833,2.9808-2.0833,2.9808-0.60897,3.3974-0.60898,3.3654,0.92949-0.57692,0.96154-0.57692,0.51282,0.83333,0.51282,0.83334-0.80128,1.3141-0.80128,1.282-1.7308-2.6282-1.6987-2.6282h-1.859-1.891l-1.1218-2.468-1.1218-2.468,1.9872-0.51282,1.9872-0.51282v-1.859-1.8269l-2.7564-2.2115-2.7564-2.2115-0.28846-3.9744c-0.35011-4.8828-0.72759-6.7433-1.6026-8.141l-0.67307-1.0897,0.96153-1.4744c0.51825-0.81922,0.95334-2.3141,0.96154-3.3013v-1.7949h-1.9551-1.9872l-0.67307-3.141c-0.38055-1.7326-0.55298-3.3252-0.35257-3.5256,0.20042-0.20041,2.2365-0.52281,4.4872-0.70513l4.0705-0.32051zm-126.57,28.974,1.859,1.6987,1.859,1.6987,1.5385-0.60897,1.5385-0.57692,0.64103,3.8782c0.35454,2.1455,0.66682,4.4872,0.67308,5.1923,0.01298,1.4753-0.64074,1.5128-3.8462,0.22436l-2.3077-0.92949v-2.5-2.532l-2.8205-2.0513-2.8205-2.0513,1.8269-0.70512,1.859-0.73718zm108.43,7.3077,0.70513,1.1538,0.73718,1.1538-1.9231,1.4423c-1.0437,0.79069-2.6987,1.4564-3.6859,1.4744l-1.7949,0.032v4.1026,4.1026l-2.0513,1.282-2.0513,1.25v1.7628c0,0.95922-0.41834,1.9918-0.92949,2.3077l-0.92949,0.57697,0.54488,2.0192c0.29006,1.1092,1.1699,2.5535,1.9551,3.2051l1.4103,1.1859v2.4038,2.4038l-1.5385-0.57692-1.5385-0.60898v2.6603,2.6923l-3.8141,1.7949-3.7821,1.7949-0.64102,3.0769c-0.34607,1.6923-1.1771,4.1154-1.859,5.3846l-1.25,2.3077h-1.5064-1.5064l-1.7628,2.0513-1.7628,2.0513h-1.3462-1.3462l-0.38462-1.282c-0.21023-0.70513-0.65041-2.1535-0.99359-3.2051l-0.64103-1.891-2.4679,0.48077-2.4679,0.44872-0.64103-2.5-0.64102-2.5,0.96154-1.1859,0.92949-1.1859-0.22436-3.3333-0.19231-3.3013-1.5705-1.8269-1.5705-1.7949-0.60897-3.3013-0.64103-3.2692,1.004-0.6,0.99359-0.60898-0.57692-0.96154c-0.32454-0.52511-1.0397-0.96154-1.5705-0.96154h-0.96154v1.5385,1.5385h-1.6026-1.6346l0.67308,3.0769,0.67308,3.0769h-0.96154c-0.53985,0-1.5646-0.68172-2.2756-1.5385l-1.3141-1.5705,1.6987-1.859c0.92401-1.021,1.6667-2.3566,1.6667-2.9808v-1.1538l3.5897-1.282,3.5897-1.3141v-2.3398-2.3718h0.92949c0.50375,0,1.2298,0.79145,1.6026,1.7628l0.67308,1.7628,0.83333-1.3462,0.83333-1.3782-0.44872-1.8269-0.48077-1.7949,2.3718-1.6667,2.3397-1.6667h2.7885,2.7885l0.64103-2.0513c0.69033-2.175,1.4283-2.4119,4.0385-1.4103l1.604,0.6v1.4423,1.4102h1.0577,1.0256l-0.64102-4.1026-0.67308-4.1026h1.6667,1.6667v1.9231,1.891l1.891,2.468c1.0322,1.3453,2.1717,3.2436,2.532,4.2308l0.64103,1.7949h1.0577,1.0577v-2.0513-2.0513h-1.0256-1.0256v-1.282l0.032-1.282,3.3013-2.2436c1.8295-1.2383,4.1019-2.5332,5.032-2.8846l1.6987-0.64102zm61.731,1.0897,0,3.6859,0,3.6859,1.0256-0.64103,1.0256-0.64102,0,1.1218,0,1.1218-1.4423,0.54487-1.4423,0.57692-0.64103,2.468-0.60897,2.5-1.5705,0c-0.85525,0-2.6801,0.75563-4.0705,1.6667l-2.532,1.6346v1.4423,1.4102h-3.4615-3.4936l-0.57692,1.5385c-0.65111,1.6968-2.2855,2.0254-3.141,0.64102l-0.54487-0.86538,2.0192-1.859,2.0192-1.8269v-1.9231c0-1.0688,0.75112-3.4218,1.6667-5.1923l1.6667-3.2051-1.1538-1.8269c-0.6335-1.0144-1.1538-2.3342-1.1538-2.9167v-1.0577l2.5641,0.64102,2.5641,0.64103,0.60897-1.6667,0.64103-1.6346h1.3141,1.3141l0.60898,1.5705,0.60897,1.5705,3.109-1.6026,3.0769-1.6026z"/>
<path fill="#dfdfdf" d="M99.872,3.125E-7c-0.486,0.00061436-0.959,0.024544-1.443,0.032052l0.48077,2.2756-2.0192,1.7308-2.0513,1.7308h-2.6603-2.6923l1.3141-1.5705,1.2821-1.5385,1.9231,0.60897,1.891,0.57692v-1.5064c0-0.60381,0.14804-1.4965,0.35256-2.2756-47.036,1.7427-85.769,35.963-94.424,80.898l0.70513-0.41667,0.67308,4.1667,0.67308,4.1987,0.86538,0.54487,0.89744,0.54487v7.1474,7.1474l-1.6667,2.5641-1.6667,2.5641,0.89744,3.2372,0.92949,3.2051,1.25,0.41667,1.2179,0.41667,0.64103-2.6282,0.67308-2.6282,0.92949,0.57692,0.92949,0.57692-0.54487,0.89744-0.57692,0.89743,0.60897,2.3718,0.57692,2.3718,3.0449,1.7308,3.0128,1.7308v2.1154,2.0833h-1.5705-1.5385l-0.96154-2.468c-0.51534-1.3555-1.4203-2.7709-2.0192-3.141l-1.0897-0.67307v5.3205,5.3205l3.6218-0.57692,3.5897-0.57692,2.0513,4.0385,2.0833,4.0385h1.4103,1.4103l5.1603,5.641,5.1603,5.641h1.5705,1.6026l0.67308,2.7244,0.70513,2.7244-1.2179,1.9231-1.2179,1.9551,0.60897,0.96154,0.60898,0.99359h-1.6026-1.6026v-1.5064-1.5064l-2.1154-1.1218-2.1474-1.1538-1.5705,0.60897-1.6026,0.60898,2.6923,2.5,2.6923,2.5v1.6667,1.6987l5.609,5.4487,5.609,5.4808,1.9551,0.60897,1.9551,0.64103,1.5705,3.8141,1.5705,3.8141,0.09615-2.468,0.09615-2.5,2.5641,2.4038,2.5962,2.4359,3.5256,1.1859,3.4936,1.218,0.92949-0.89744,0.89744-0.89744,1.891,2.0513,1.859,2.0833h1.891,1.891v-0.96154c0-0.53756-0.50702-2.0802-1.1218-3.4295l-1.118-2.46,1.0897-3.8782,1.0577-3.8782-1.3782-1.3782c-0.76887-0.76887-1.6017-1.9525-1.8269-2.6282l-0.41667-1.218-1.8269,0.70513-1.859,0.70512,1.25,1.5064,1.25,1.5064-0.64103,2.5962-0.64103,2.5641h-1.1859c-0.64996,0-1.9232-0.66227-2.8205-1.4744l-1.6346-1.4744,0.38462-4.5833,0.35256-4.5833,1.9872-0.51282,2.0192-0.54488-0.70513-2.7564-0.67308-2.7564,2.0513,0.67308,2.0833,0.64103,0.64102-2.5321,0.60898-2.5-1.0577-2.7885c-0.58081-1.5276-0.92604-2.8728-0.76923-2.9808,0.15681-0.10801,2.4808,0.43481,5.1603,1.218l4.8718,1.4423v1.6667,1.6987l1.25-1.2179,1.2179-1.25h1.7949,1.8269l1.0256-1.9231,1.0256-1.9231,4.1346-1.6667,4.1346-1.6346v-1.6026c0-0.87057,0.71632-2.6859,1.6026-4.0385l1.6346-2.4679-1.1538-2.1474-1.1859-2.1795,0.32051-2.6923,0.32051-2.6923,1.2821-0.41667,1.2821-0.41667v3.5898,3.6218l1.6987,1.6667,1.6667,1.6667,1.1538-1.1218,1.1218-1.1538v-3.8141-3.782l3.3333-0.32051,3.3333-0.32051,0.96154,2.5,0.92948,2.4679-0.57692,4.3269-0.57692,4.3269,2.8526-0.32051,2.8205-0.35257,0.41667-4.8718,0.41667-4.9038-2.6282-0.99359-2.5962-0.99359,0.67308-2.6923,0.67307-2.6923-2.1795,0.70513-2.2115,0.67307v-1.0897-1.0897h1.4744,1.4744l0.60897-1.891,0.57692-1.891-1.4102-2.7885-1.4423-2.7564-1.6667,1.6667-1.6667,1.6667v2.468,2.5h-1.4744c-0.81286,0-1.8005-0.50854-2.1795-1.1218l-0.67308-1.0897,1.1538-1.1538,1.1218-1.1538v-2.7885-2.8205l-1.0256-0.64103c-0.5641-0.34863-1.0277-1.1871-1.0256-1.859v-1.218l3.0769-2.0513,3.0769-2.0513v-3.2372-3.2051l3.0128-3.2051,2.9808-3.2372,3.2051-1.0897,3.1731-1.1218,1.5064,1.2821,1.5064,1.25v3.3654,3.3654l2.0192-0.51282,2.0192-0.54487,1.2821,2.7564,1.25,2.7564,2.532-0.48077,2.5-0.48077,3.1731,1.0577c1.7428,0.58018,3.6018,1.4391,4.1346,1.9231l0.99359,0.89744-2.2756,2.0833-2.2436,2.1154v1.7949,1.7949l1.25,1.25,1.218,1.218h1.859,1.8269v2.5641,2.5641h1.3462c0.73333,0,1.8872-0.54102,2.5641-1.2179l1.218-1.25,1.0577,1.0577,1.0577,1.0577-2.0833,1.859-2.0833,1.891v3.2372,3.2372l1.5064,1.9872,1.5064,1.9872,0.032,2.3077,0.032,2.3077h1.5385,1.5385v-1.0256-1.0256h3.109,3.109l-1.0577,1.9872c-0.58395,1.0911-1.0577,2.7065-1.0577,3.5897v1.6026h0.99359,0.99359l2.3397-4.1026c1.2861-2.2521,2.6859-4.0985,3.109-4.1026h0.76923v2.6282,2.6282l2.2756-1.6026,2.3077-1.6026,3.0769,0.54487,3.109,0.54487,1.5385-3.3654,1.5385-3.3654,1.7949-0.32052,1.7949-0.35256v4.1987,4.1667h1.25,1.282l3.3013-3.718,3.3013-3.7179,0.70512-3.2051c0.38376-1.7642,1.3804-4.1282,2.2115-5.2564l0.92949-1.282c0.1679-0.68153,0.32692-1.3643,0.48077-2.0513l-0.0641-0.89743-0.0641-1.1859-5.3846,0.16026-5.3846,0.1282-0.32051-2.7564-0.32051-2.7564,2.1474-1.1218,2.1154-1.1538,0.96154,2.3718c0.5193,1.2939,0.95779,1.9344,0.99359,1.4423l0.0641-0.89743,1.5385,1.282,1.5385,1.282,2.0192-2.4359,1.6987-2.0513c0.58-4.42,0.9-8.86,0.9-13.39,0-10.355-1.57-20.35-4.49-29.744l0.19231,1.4744-1.1859-0.73718c-0.64996-0.4017-1.1859-1.3817-1.1859-2.1795,0-0.79777-1.003-3.5362-2.2436-6.0897l-2.2756-4.6474h-1.6987-1.7308l-1.282-1.5385-1.282-1.5385h-1.7949-1.7949l-1.5705-2.3077-1.5705-2.3077-0.70513,2.0513c-0.38845,1.1282-0.8795,2.6282-1.0897,3.3333l-0.38462,1.2821h-4.6474-4.6474v0.92949c0,0.51796-0.25752,1.6356-0.57692,2.4679l-0.57692,1.5064,3.3013,1.6667c1.8163,0.9061,4.0014,1.6346,4.8397,1.6346h1.5064l1.3782,1.7949,1.3462,1.7949,0.032,2.1795c0.0403,2.6939,2.7223,9.2553,4.1346,10.128l1.0256,0.64103v1.9872,1.9872h-1.3782-1.3782l-1.5385-1.7949c-0.8553-0.98718-2.8013-3.9098-4.2949-6.5064s-3.6204-5.5541-4.7436-6.5705l-2.0513-1.859v-1.3462-1.3462l-2.0513-1.0897-2.0513-1.0897v-1.9551-1.9551l-1.282-0.80128c-0.70513-0.43993-2.7787-0.86271-4.6154-0.92949-4.173-0.15172-4.3961-0.40467-5.0641-5.3846l-0.54487-4.0385,2.1795-2.1795c1.1937-1.1937,2.609-2.1795,3.1731-2.1795h1.0256v-1.2179c0-0.66877-0.91536-2.1883-2.0513-3.3974l-2.0833-2.2115-0.35256-4.1346c-0.40407-4.7658-1.2237-6.4744-3.141-6.4744h-1.3462l-0.54488-2.0513-0.54487-2.0513h-1.1218-1.1218v1.5385c0,2.0412-0.98919,1.9449-2.6602-0.25641l-1.3782-1.7949-0.032-2.7885-0.032-2.7885-3.8141-2.5962-3.8462-2.5962h-4.1026l-4.1346-0.03205-1.218-0.76923c-0.66983-0.42592-1.6802-1.9797-2.2436-3.4615l-1.0256-2.6923,0.64103-0.64103c0.34005-0.34005,2.6616-0.60897,5.1603-0.60897h1.7308c-5.9882-1.6854-12.203-2.8239-18.59-3.3654,1.0246,0.86098,2.0215,1.8606,2.532,2.5641l1.3462,1.8269,1.9872-1.0577,1.9872-1.0577v3.109,3.109h-1.6667-1.6987l-1.1218-1.5064-1.1538-1.5064-6.4103,1.3462-6.4103,1.3141v-0.67308c0-0.38108,0.92308-1.5431,2.0513-2.5641l2.0513-1.859v-1.5064-1.4744l2.0513,0.51282c1.83,0.48728,2.37,0.26688,1.6-0.77046-1.9-0.10705-3.82-0.16026-5.74-0.16026-0.01078,0-0.02127-0.0000030769-0.03205,0v0.12821l-0.096-0.12821zm57.048,22.276l-0.89744,0.92949-0.92949,0.89744,2.2115,3.7179,2.1795,3.7179v1.859,1.859l-1.5385,1.2821-1.5705,1.3141,1.25,1.5064,1.282,1.5064,1.9231-2.3718,1.891-2.4038-0.54487-2.8526-0.57693-2.8526h1.3141c0.71924,0,1.829,0.51484,2.468,1.1538l1.1538,1.1859,1.6026-0.60897,1.5705-0.60897-0.60898-1.6026-0.60897-1.5705h-1.25c-0.70092,0-3.3208-1.3469-5.8013-3.0128l-4.5192-3.0449zm-156.89,79.874c0.05761,2.7152,0.21085,5.4191,0.48077,8.0769v-3.0449l1.0897-1.9872,1.0577-2.0192-1.5705-0.60897-1.0577-0.41667zm158.65,8.2372,1.859,0,1.891,0,2.1154,2.8205c1.163,1.5513,2.497,3.2894,2.9808,3.8782,0.48376,0.58874,1.111,3.2426,1.4103,5.8974l0.54487,4.8397h-1.4423-1.4423l-0.57692,1.5385c-0.32471,0.84616-1.0027,1.5385-1.5064,1.5385h-0.92949v-1.6987-1.7308l1.5064-1.6667,1.5064-1.6667-0.80128-3.0128-0.80128-3.0449-3.0128-0.32051c-1.655-0.18443-3.3918-0.71475-3.8462-1.1538l-0.80128-0.80128,0.67308-2.6923,0.67308-2.7244zm-35.064,11.795,0,1.7308c-0.009,0.95389,0.38629,1.9918,0.89744,2.3077l0.92949,0.57692-0.57693,2.2115c-0.64,2.47-3.81,5.99-5.38,5.99-1.3996,0-1.2918,1.7628,0.16025,2.6602l1.1859,0.73718,1.218-1.6667,1.218-1.6667,1.5705,1.25,1.5705,1.25,0.57692,2.4038,0.57692,2.4038-4.2308,4.5833-4.2308,4.6154,1.4744,0.92949c0.81417,0.51511,2.0513,0.95333,2.7564,0.96153h1.282v-1.891-1.891l1.859-2.1474,1.859-2.1474,2.7564-0.67307,2.7564-0.70513v-1.859-1.891l-3.3333-2.3077c-1.8333-1.2805-3.6389-2.8109-4.0385-3.3974l-0.73718-1.0577,0.92949-0.96154,0.96153-0.92949,1.7628,1.4423,1.7628,1.4423-0.70512-1.891c-0.38768-1.0333-0.70513-2.2187-0.70513-2.6603,0-0.44152-1.3616-2.3851-3.0449-4.2949l-3.0769-3.4615zm-66.699,38.462,0.96154,0c0.53081,0,1.2308,0.39964,1.5385,0.89744l0.54487,0.92948-1.891,2.4038-1.891,2.4359,0.80128,2.0513c0.44609,1.1282,0.85778,2.3852,0.89744,2.7885,0.03965,0.40323-0.84618,1.2334-1.9551,1.8269l-2.0192,1.0577-1.7949-2.8205c-0.99868-1.5608-2.5124-3.3794-3.3654-4.0385l-1.5705-1.218,0.86538-0.83333,0.83333-0.86538,1.3141,1.7949c1.6993,2.324,2.6282,2.2854,2.6282-0.12821v-1.9231l2.0513-0.54488,2.0513-0.54487v-1.6346-1.6346zm114.87,6.1538c-1.6076,0-4.1518,0.45905-5.641,1.0256l-2.7244,1.0256,0.32051,3.0128,0.32051,2.9808-1.7949,1.9872c-0.99293,1.0972-3.6411,2.8111-5.8654,3.8141l-4.0385,1.8269,0.57693,0.92949,0.57692,0.92949-0.25641,0.28846c7.8421-4.9457,14.951-10.956,21.122-17.821h-2.5962zm-68.942,15.417-0.89743,0.54488-0.92949,0.57692,0,1.9231c0,1.0684-0.51199,3.1105-1.1538,4.5192l-1.1859,2.5641-2.9167,1.0256-2.9487,1.0256v1.0577,1.0898h1.5385,1.5385v1.0577,1.0577l-2.14-1.16-2.1795-1.1538-1.0897,1.1218-1.1218,1.0898-1.859-1.6667-1.859-1.6987v-1.8269-1.8269l-1.0897-0.67308-1.0897-0.67308-0.67308,0.64103-0.64102,0.67308,1.0256,1.7628,1.0577,1.7308-0.38462,1.7949-0.38462,1.7949h-0.19231c5.445,0.94,11.027,1.43,16.732,1.43,2.8292,0,5.6277-0.15425,8.3974-0.38462,0.42817-0.0356,0.85542-0.0872,1.282-0.12821l-1.218-2.6602-1.282-2.7564v-2.8526-2.8846h-1.4423-1.4423l-0.70513,4.1026-0.67307,4.1026h-1.4744-1.4423v-2.5641-2.5641h1.0256,1.0256v-1.4423c0-0.79913,0.44389-1.6068,0.96154-1.7949l0.92949-0.35256-0.54487-2.8205-0.54488-2.7885zm-26.955,4.5833,0.32051,4.8718,0.32051,4.9038-1.0256,0.38461c1.7025,0.42852,3.4244,0.8139,5.1603,1.1538l-0.80128-5.4167-0.89744-5.8974h-1.5385-1.5385zm-15.577,5c3.0455,1.3183,6.1654,2.4785,9.359,3.4936l-0.60897-0.41667-4.2308-2.9167-4.2949-0.16025h-0.22436zm70.449,1.1538-2.3077,2.8205-0.0962,0.1282c0.80326-0.23718,1.6092-0.48051,2.4038-0.73718v-0.92949-1.282z"/>
<path fill="#d7d7d7" d="M94.872,0.12821c-6.549,0.33194-12.946,1.288-19.103,2.8205l2.6923,0.35256,4.8718,0.64103,0.70513-1.1218c0.38762-0.62719,1.1359-1.1538,1.6667-1.1538h0.96154v1.4744,1.4423l-2.6923,2.1474-2.6923,2.1154h-1.7949-1.7949l-1.2821,1.5385-1.2821,1.5385h-1.5064-1.5385l0.57692-1.4423,0.544-1.4435-0.641-0.609-0.609-0.641-2.66,2.4675c-1.4494,1.3548-3.6369,2.7685-4.8718,3.141l-2.244,0.674-1.089-2.052-1.09-2.0511,2.244-2.0833c0.41-0.3822,0.756-0.6904,1.089-0.9615-30.624,12.076-53.826,38.839-60.993,71.603l1.4744,3.2051,2.1474,4.5513,0.48077,9.4551,0.48077,9.4231-1.7308,1.7308-1.6987,1.6987,0.28846,2.6282,0.32051,2.5962,1.25,0.41667,1.25,0.41666,0.67308-2.6602c0.36401-1.4503,1.0127-2.6282,1.4423-2.6282h0.76923l1.25,4.4872,1.25,4.4872,3.9744,3.9744,3.9744,3.9744,0.03205,2.1474,0.03205,2.1154,2.5321,2.3718,2.5321,2.4038,1.8269-2.2115,1.8269-2.2115,2.3077,0.64103,2.3077,0.64102v1.3462c0,0.74364-0.45104,2.5153-0.99359,3.9423l-0.96154,2.5962,0.96154,0.60897,0.99359,0.60898v2.1154,2.1154l2.9487,3.3333,2.9167,3.3333,0.67308,5.1923,0.70513,5.1923,2.2756,0.44872c1.2548,0.24256,2.6218,0.5001,3.0449,0.57692l0.76923,0.1282v-1.5064-1.4744l-2.2115-2.0833-2.2436-2.0833,0.70513-0.70513,0.70513-0.73718,1.2179,1.218,1.2179,1.218h1.7628,1.7949l0.32051-2.7244,0.32051-2.7564,1.1859-0.38462,1.1538-0.38461,0.41667,3.6538,0.41667,3.6218-0.92949,0.92949-0.92949,0.96154,0.67308,1.0897c0.37901,0.61325,1.3666,1.1218,2.1795,1.1218h1.4744v-1.5385-1.5385h1.0897c0.60119,0,2.0095,0.46927,3.109,1.0577l1.9872,1.0898,0.60897-1.6026,0.60897-1.5705h1.4423,1.4103l0.1282-1.282c0.16544-1.7463,0.14202-1.9132-0.70513-5.2885l-0.73718-2.9808,2.4679,0.73718c1.3524,0.40378,4.8976,1.3641,7.9167,2.1154l5.5128,1.3462,1.6346-1.9231,1.6667-1.9551,3.4295-1.1218,3.4295-1.1218,0.96154-2.532c0.52912-1.3917,0.96154-2.997,0.96154-3.5577v-1.0256l-0.96154,0.60897-0.92949,0.57692-1.6346-2.2756-1.6026-2.3077v-2.1474-2.1154l1.1538-1.1538,1.149-1.19,1.5385,0.57692,1.5064,0.60898-0.73718-4.5192c-0.89575-5.4094-1.2309-6.0577-3.109-6.0577h-1.4423l0.60897-1.5385,0.57692-1.5385-0.64102-2.5641-0.64103-2.5641h-2.0192-1.9872l-1.7308-2.6282-1.6987-2.5962,1.1218-1.1538,1.1538-1.1538,3.3654-0.22436c1.8509-0.13667,4.8626-0.56811,6.6667-0.92948l3.2692-0.64103,2.1795,2.1795,2.1795,2.1474,1.3462-1.1218,1.3462-1.1218,0.70513-4.6795,0.70513-4.6795-1.7628-1.9231-1.7308-1.9551,1.9231-0.70513c1.064-0.39988,2.4778-1.4586,3.141-2.3397l1.1859-1.6026,2.9167,1.6026,2.8846,1.6346,3.5577-1.2179,3.5256-1.2179,0.38461-1.1859,0.41667-1.1538h3.0449,3.0769l-0.32051,5.3846-0.35256,5.3846,2.3077-0.0641,2.3077-0.09615v1.9231,1.891l1.282,0.38461c0.70513,0.21403,3.5317,1.0074,6.282,1.7628l5,1.3782,0.51282,1.3141,0.51282,1.3141-1.6667,1.859-1.6667,1.8269v1.6667,1.6667l2.8205,1.3462,2.8205,1.3782-0.32052,2.2756-0.32051,2.2756h0.99359c0.53921,0,1.2458-0.6923,1.5705-1.5385l0.57692-1.5385h1.5064,1.5064l0.67307,2.1474,0.67308,2.1474-2.1474,2.2756-2.1474,2.2756v1.5385c0,0.843,0.67815,2.4306,1.5064,3.5256l1.5064,1.9872,0.0641,2.5641,0.032,2.5641,0.86539-1.3782,0.86538-1.3462,4.1987,0.28846c2.31,0.16679,4.4372,0.0821,4.7115-0.1923,0.27437-0.27437,0.0392-2.5109-0.51282-4.968l-0.99359-4.4551,1.5705-1.7628,1.5705-1.7308-2.3077-2.0513c-1.2684-1.1344-3.7521-2.6583-5.5449-3.3654l-3.2692-1.282-0.60898-1.5705-0.60897-1.5705,0.64102-5.2564,0.67308-5.2564,1.4423-2.3077c0.79434-1.2692,1.8587-2.3077,2.3718-2.3077h0.92949l0.67308,2.1154,0.67308,2.0833-1.3782,1.6987-1.3782,1.6667,1.891-0.70512c1.0333-0.38768,2.3025-0.70513,2.8205-0.70513h0.92949v-1.5385-1.5385h0.96154c0.53081,0,1.2539,0.46154,1.6026,1.0256l0.64103,1.0256-0.80128,1.282c-0.44146,0.70513-0.81241,1.9744-0.83334,2.8205-0.0507,2.0473,3.1709,8.3672,4.7756,9.359l1.2821,0.76923,0.032,2.8205,0.032,2.8526,4.0064,0.25641,4.0385,0.25641,0.73718,1.25,0.76923,1.218-0.48077,1.3141-0.51282,1.3141-3.0128,1.0256-3.0128,1.0577-0.60898,1.6026c-0.33496,0.87291-1.0026,1.5705-1.5064,1.5705h-0.92948v-2.5641-2.5641h-1.0577c-0.58182,0-1.2768,0.57692-1.5385,1.282l-0.44871,1.282,0.80128,3.0128,0.83333,3.0449,4.359,0.0961,4.391,0.1282,1.4103-2.7564,1.4423-2.7564,2.0833-0.54487,2.0833-0.54487v-1.9231-1.9231l1.6026-2.2436,1.5705-2.2756-1.0577-1.9872c-0.5892-1.1009-1.0898-2.7385-1.0898-3.6218v-1.6026l2.0513-2.0513,2.0513-2.0513h3.5897,3.5897v-2.6282-2.6282l-2.0513,0.64103-2.0513,0.64103v-1.6987-1.6987l2.0513-0.54487,2.0513-0.51282v-2.9808-2.9487h1.218,1.218l-1.891-1.4103-1.9231-1.3782,1.282-3.141,1.3141-3.109-1.1538-2.1474-1.1538-2.1474h-1.0577c-0.58456,0-1.7633,0.67357-2.5962,1.5064l-1.5064,1.5385,1.0898,1.9872c0.59107,1.1044,1.0577,2.9693,1.0577,4.1346v2.1154h-1.0256-1.0256v-1.0897-1.0897l-1.9231,0.60897-1.9231,0.60898-6.282-5.4167-6.282-5.4167v-1.1218-1.0897l-4.1026-3.7179-4.1346-3.6859-0.64102-3.2692-0.64103-3.2692-1.8269-0.48077-1.7949-0.48077-0.64103-2.4679-0.60897-2.4679h-2.0192-2.0513v1.0256,1.0256h-1.7949-1.7949l-2.0513-7.4359-2.0513-7.4359-2.3077-0.99359c-1.2692-0.55684-2.3077-1.3359-2.3077-1.7308v-0.73718l3.6218,0.60897,3.6538,0.57692,1.3462-1.859,1.3462-1.8269-1.5705-4.0385-1.6026-4.0385-2.3718-0.89744-2.3718-0.92949-4.6154,0.64103-4.6154,0.64102,0.0321-3.4936c0.0135-1.91,0.42281-5.2521,0.92948-7.4359l0.92949-3.9744-0.48077-1.25c-0.268-0.6984-1.485-1.8011-2.7244-2.4359l-2.2756-1.1538-9.7436-0.92949-9.7436-0.92949-0.76923,1.1538-0.76923,1.1859-0.83333-1.3141-0.86539-1.3141-1.6987,0.64103-1.7308,0.67308v-1.1218-1.1538h1.2179,1.1859l-0.67308-0.67308-0.70512-0.67308-6.1538,0.22436-6.1538,0.19231-0.64103-1.6346-0.64103-1.6346-1.6667,0.16026c-0.91774,0.088652-2.3027,0.12906-3.0769,0.064103l-1.434-0.1693,1.378-1.6346c0.751-0.905,2.426-2.0407,3.718-2.5321l2.3397-0.89744v-1.6026zm15.192,0.38462,0.76923,0.54487,1.9872,1.4744,1.1218-0.92949,0.67307-0.54487c-1.5-0.22067-3.02-0.39219-4.55-0.54488zm5.5128,0.67308,0.0962,0.096154c0.27706,0.27705,2.3648,0.60664,4.9038,0.83333-1.6496-0.34497-3.3216-0.66692-5-0.92949zm-42.878,2.5641c-2.0054,0.568-3.9775,1.2032-5.9295,1.891,0.57032-0.01062,1.2322,0.0009785,2.0513,0.064103l2.1474,0.16026,1.3141-1.6026,0.41667-0.51282zm28.526,11.571,0.54487,1.3782,0.51282,1.3782,2.2436,0,2.2436,0,1.25,1.25,1.218,1.2179,0,2.1154,0,2.1154,2.0513,1.2821,2.0513,1.2821,0,1.8269,0,1.859-3.141,2.3397-3.141,2.3077-0.54487-2.0192-0.54487-2.0513-1.8269-0.48077-1.859-0.48077-0.67308-3.109-0.70512-3.141-1.4744-0.54487-1.4744-0.57692,0-1.6346,0-1.6346-2.0513,0.64102-2.0513,0.64103,0-2.1154,0-2.1154-2.2115,0-2.2115,0,0.73718-0.76923,0.76923-0.73718,5.1282-0.1282,5.1603-0.09615zm22.532,5.3205,0.51282,1.2821,0.54487,1.2821,3.0449,0,3.0769,0-0.70513,3.3333c-0.39201,1.8333-1.1532,3.9053-1.6987,4.5833l-0.99359,1.2179,0.67308,2.1154,0.67307,2.0833-1.891,0.16026c-1.0252,0.08772-2.8996,0.07669-4.1667-0.03205l-2.3077-0.19231-2.0833,1.1218-2.1154,1.1218-0.96154,2.5-0.92948,2.5h-1.1538-1.1859l0.54487-3.3333c0.30025-1.8333,1.1467-5.5478,1.859-8.2692l1.282-4.9679,3.9103-1.9872,3.9102-1.9872,0.0962-1.2821,0.0641-1.25zm-15.577,36.41,1.0577,0,0,1.5385,0,1.5385-1.5385,0-1.5385,0,0,1.6026,0,1.5705-3.8462,3.5577c-4.0981,3.7639-4.8998,4.0943-5.8654,2.5321l-0.60897-0.99359,2.0192-1.9872c1.1061-1.1061,2.5144-2.9637,3.141-4.1346l1.1218-2.1474h1.9231,1.891l0.60897-1.5385c0.3247-0.84615,1.0528-1.5385,1.6346-1.5385zm72.596,0.92949-1.7308,1.6026c-0.96204,0.87064-2.288,1.5705-2.9487,1.5705h-1.218v-1.1859c0-0.65812-0.20377-0.98212-0.48077-0.70513-0.27698,0.27699,0.12663,2.9971,0.89744,6.0577s1.6846,6.864,2.0513,8.4295l0.67308,2.8526,3.6218,4.0064,3.6538,4.0385,2.4038-1.0897,2.3718-1.1218,1.7308-4.5192,1.7628-4.5192-0.67308-2.6282c-0.36069-1.4371-1.3997-4.3144-2.3077-6.4103l-1.6346-3.8141-4.1026-1.2821-4.0705-1.2821zm-119.74,15.481,1.0256,0c0.5641,0,1.0256,0.46154,1.0256,1.0256v1.0256h3.5897,3.5577l0.60898,2.5c0.34275,1.3656,0.47944,3.2778,0.28846,4.2628l-0.35256,1.7949-1.1859,0.38462-1.1859,0.41667-0.51282-1.859-0.48077-1.859-0.73718,2.3077-0.73718,2.3077h-2.7564-2.7564l-1.2179,1.25-1.25,1.2179v-1.9551-1.9551l-2.6923-2.1795-2.6923-2.1474,0.73718-2.3077,0.73718-2.3397,1.6987,0.70513c0.93622,0.38685,2.5064,0.9341,3.4936,1.2179l1.7949,0.54487v-2.1795-2.1795zm43.077,118.97,0,1.9551,0,1.9231-1.4423,0.57692-1.4744,0.54487-1.4103-2.1474-1.4423-2.1795-1.3141,0.80128-1.2821,0.80128,0.51282,1.9872,0.51282,1.9551-3.3974-0.64102l-3.381-0.64-0.70513,1.1538-0.51282,0.80128c3.685,0.42,7.423,0.68,11.218,0.68,2.1849,0,4.3564-0.11839,6.5064-0.25641l2.0513-2.1795h-1.1859-1.2179v-2.5641-2.5641h-1.0256-1.0256zm-19.431,2.57l-0.03205,1.0256c-0.02741,0.5641-0.4379,1.6155-0.89744,2.3397l-0.16026,0.28846c1.5482,0.25572,3.1082,0.45729,4.6795,0.64103l-1.635-1.96-1.956-2.34zm-5.1923,0.48076-2.3077,1.5064-0.41667,0.28847c0.90874,0.21637,1.8062,0.4176,2.7244,0.60897v-0.96154-1.4423z"/>
<path fill="#cacaca" d="m110.26,0.51282,0,0.12821,1.0897,0c-0.36067-0.040708-0.72792-0.091344-1.0897-0.12821zm-27.568,0.64107c-1.3391,0.2185-2.6857,0.46605-4.0064,0.73718l2.1795,0.57692,1.0897-0.86538c0.17011-0.13943,0.42523-0.30013,0.73718-0.44872zm-40.032,16.026c-17.55,11.967-31.098,29.384-38.205,49.807-0.0823,0.85-0.4088,2.434-0.9936,5.161l-1.0897,5.0641,1.6987,3.9744,1.6987,3.9423,0.51282,8.2051,0.51282,8.2051,1.9551,5.4487c2.0992,5.8269,5.6649,13.224,7.3718,15.353l1.0256,1.3141,1.9231-1.7308,1.891-1.7308,0.03205,3.4936c0.0086,1.9208,0.3738,4.0835,0.83333,4.8077l0.83333,1.3141,1.7308-0.64102c0.94208-0.36151,1.6987-1.0668,1.6987-1.5705v-0.92949h2.5321,2.5641l1.5705-3.0769c1.9035-3.6809,2.1505-3.7301,3.7179-0.80129l1.2179,2.2756,0.32051,3.8782,0.32051,3.8782h-1.7949-1.8269l-1.2179,1.25-1.25,1.218v2.2436c0,1.2286,0.64541,3.7708,1.4423,5.6731l1.4744,3.4615,2.6603,2.5,2.6603,2.5,3.4295,0.25641,3.4615,0.28846,3.3974-4.0705c3.6682-4.3722,4.805-4.8777,5.7051-2.532l0.57692,1.5064-2.1474,2.7244-2.1474,2.7564v1.891,1.9231l3.3333,1.4423c4.2608,1.8633,4.2871,1.8748,3.141,0.35256-0.53086-0.70513-1.0565-2.5675-1.1538-4.1346l-0.16026-2.8526,2.5641-0.96154,2.5321-0.96154v-1.5705-1.5705l0.76923,0.032c0.42308,0.0179,1.6614,0.71025,2.7564,1.5385l1.9872,1.5064h2.9487,2.9487l2.1154,1.1218,2.1154,1.1538,0.86538-1.3782,0.83333-1.3462,3.3974-1.1538,3.3654-1.1218,0.32051-3.2692,0.32051-3.2372h-1.0897-1.0897v-4.1026-4.1346l1.2821-2.2756c0.70513-1.2616,1.7063-2.6146,2.2115-2.9808l0.92949-0.64102-0.60897-1.5705-0.60897-1.5705-2.0192,0.54487-2.0192,0.51282-0.64102-2.0513-0.64103-2.0513,0.67308-2.7244,0.67308-2.7244-2.1795-0.57692-2.1795-0.54487v-1.0256c0-0.55226-0.92968-2.3222-2.0833-3.9423l-2.1154-2.9487,3.3974-1.4103c1.8588-0.77697,4.0014-2.1754,4.7756-3.109l1.4103-1.6987h2.4038,2.4359l3.3013,2.0192,3.3013,1.9872,1.3462-1.0897,1.3141-1.1218v-2.0513-2.0192l-4.1026-4.0064c-2.2564-2.1898-4.1026-4.3199-4.1026-4.7436,0.000017-0.4237,1.6257-2.0547,3.5897-3.6218l3.5577-2.8526,6.6346,3.109,6.6026,3.109,1.9872-0.76923c2.5782-0.99546,9.4231-7.0753,9.4231-8.3654,0-0.55331,0.8077-1.4912,1.7949-2.0833l1.7949-1.0897-1.7949-1.0577-1.7949-1.0897v-1.5705-1.5385l2.2115,0.32051,2.2115,0.32051,1.1218,1.8269,1.1218,1.8269-1.1218,0.73718-1.1218,0.73718-0.57692,3.75-0.60898,3.7179,1.0256,4.4551,0.99359,4.4551,1.3782,1.5705c0.75526,0.85449,1.5315,2.4138,1.7308,3.4936l0.35256,1.9872,5.0641,1.6667,5.0641,1.6987,1.0897,1.7308,1.0897,1.7308-1.282,2.0513c-1.7216,2.7567-1.6999,2.7978,1.7308,3.3013l3.0128,0.41667,1.6987-4.1667c0.94212-2.294,2.3609-5.6667,3.141-7.5l1.4102-3.3333h1.4423c0.7908,0,2.7753,0.69582,4.391,1.5385,1.6158,0.84268,3.7244,1.535,4.7115,1.5385h1.7949v2.6282c0,1.4473,0.46002,3.4944,1.0256,4.5513l1.0256,1.9231-1.0256,0.64102c-1.5719,0.97147-1.2496,2.0263,1.5064,5l2.532,2.7244-0.57693,1.4744-0.54487,1.4423,3.4295,0.51282c1.8805,0.28648,4.2051,0.48066,5.1923,0.41666l1.7949-0.1282v-2.3077-2.3077l4.1026-3.4936,4.1026-3.5256v-3.2372-3.2692l2.0513-1.7308,2.0513-1.7628v-1.3782-1.3782l-1.891,0.60897-1.9231,0.60898-1.282-1.5705c-0.68-0.846-1.88-1.558-2.63-1.558h-1.3462l-6.282-5.1923-6.25-5.2244-1.5064,1.25-1.5064,1.25-0.76923-0.73718-0.73718-0.73718,1.81-1.315c2.5817-1.8878,2.2679-3.0719-1.7308-6.1218l-3.5577-2.6923-0.67308-3.6538-0.70513-3.6538-2.4359-0.89744-2.4359-0.92949v-0.99359-0.96154l-3.0449,1.5385-3.0769,1.5064-0.83333-0.51282-0.86539-0.51282-1.4102-6.9872-1.4103-6.9872-3.4936-3.3654-3.4936-3.3333,0.64103-1.6667,0.64102-1.6667-0.60897-1.891-0.60898-1.9231h-2.532-2.532l-0.57692,1.5385-0.60898,1.5385h-1.7949c-0.99614,0-3.9833-0.9426-6.6346-2.1154l-4.8077-2.1474-1.4423,0.54487c-0.78096,0.29968-2.597,2.4282-4.0385,4.7115l-2.6282,4.1346h-1.4103-1.4102l-0.57692-1.5385-0.60898-1.5385,0.57692-1.4744,0.54488-1.4423-2.1154,0.54487c-2.498,0.65324-2.4877,0.48317-0.96154,5.5769l1.1859,3.9744h0.83333c0.45497,0,1.3597,1.0113,2.0192,2.2436l1.218,2.2436-3.4615,6.9551-3.4936,6.9872-1.5705,0.03205c-0.86167,0.0091-2.7078,0.81677-4.1026,1.7949l-2.5321,1.7628-3.3333,0.22436-3.3333,0.19231v-1.0897-1.1218l6.5385-6.2821c3.5929-3.4437,7.2853-6.8367,8.2051-7.5641l1.6667-1.3141v-1.4423-1.4423l-4.2628-0.32051-4.2308-0.32051-1.1218-1.7949-1.1218-1.7949,1.25-2.0192c1.7696-2.8336,1.6624-3.546-1.3141-7.0833l-2.631-3.109,1.9872-1.9872c1.0918-1.0918,2.7925-2.427,3.7821-2.9808l1.7949-1.0256-0.67307-2.6923-0.67308-2.6923h-2.0192-2.0513v-1.0256-1.0256h-2.0513-2.0833l0.64103-2.5641,0.64102-2.5641h-1.6026-1.6346l-1.025,1.923c-0.5641,1.054-0.78866,2.128-0.51282,2.4038,0.27584,0.27584-0.21633,1.102-1.0897,1.8269l-1.5705,1.3141-0.76923-0.80128-0.73718-0.80128,1.2821-0.44872c0.70513-0.25183,1.2821-0.82774,1.2821-1.2821v-0.83333l-3.653-0.674-3.654-0.705-4.5833,2.6923-4.5833,2.6923-2.0192-0.64103-2.0513-0.67308-3.5256,1.1859-3.5256,1.1538-1.2821,3.5256-1.2821,3.5256h-2.3397-2.3718v1.4744c0,0.81286-0.50079,1.7957-1.1218,2.1795l-1.122,0.705-2.115-2.116-2.083-2.083,1.666-1.699,1.699-1.667-1.058-2.019-1.089-1.987,0.64102-1.0256,0.60898-0.99359h1.7949,1.7628l1.25-1.2179,1.2179-1.25v-1.8269-1.859l-0.76923,0.03205c-0.42308,0.01346-2.4705,0.41399-4.5513,0.89744l-3.7821,0.86538-0.51282-1.2821-0.48077-1.2821zm52.885,34.519,1.7628,3.7179,1.7628,3.7179-0.54488,1.4423-0.57692,1.4744-1.3141-0.1282c-0.72283-0.07333-2.8189-0.84442-4.6795-1.7308l-3.3974-1.6346,0.32051-3.109,0.28846-3.141,3.2051-0.32051,3.1731-0.28846zm83.686,8.3013-1.891,2.1154-1.891,2.0833,1.1859,5.7051,1.1859,5.7372,2.6603,3.4615,2.6282,3.4615,1.3141,0c0.70963,0,2.0354-0.57692,2.9487-1.2821l1.6667-1.2821,1.1218-4.3269,1.1218-4.3269-1.4423-3.4295-1.4423-3.4615-2.8205-2.2436-2.8205-2.2115h-1.7628-1.7628zm-120.99,6.8269,1.5064,2.2115,1.4744,2.2436,4.2308,0,4.2308-0.03205,1.4744-0.92949,1.4744-0.92949,2.7564,1.4103,2.7564,1.4423,0.60898,1.5385,0.60897,1.5385-1.7628,1.0897-1.7628,1.0897,2.0192-0.28846,2.0192-0.28846,0.38462,1.891c0.21143,1.0318,0.09644,3.0172-0.25641,4.4231l-0.64103,2.5641-2.8205-0.64102-2.8526-0.60898-3.7179,2.8526-3.7179,2.8526-0.48077,1.7628-0.48077,1.7628,1.5385,1.2821c0.84668,0.70269,1.964,2.214,2.5,3.3654,0.53604,1.1514,1.8422,3.6987,2.8846,5.6731l1.891,3.5897-0.86538,1.0577-0.86538,1.0577,0.86538,1.4102,0.86538,1.4103-0.48077,1.282-0.48077,1.282,1.6026,3.109,1.6026,3.109-0.60898,1.6026c-0.33841,0.88189-1.0547,1.6026-1.5705,1.6026h-0.92949l-1.25-2.8205c-0.67801-1.5513-2.5633-4.5187-4.1987-6.6026l-2.9808-3.782,0.67308-2.6282,0.64103-2.6282h1.0256,0.99359v-1.6667-1.6987l-1.7949-1.3462-1.7949-1.3782-2.9487-0.0321-2.9487-0.032,0.60898-3.0769,0.64102-3.0769h-1.1218-1.0897l-0.54487,2.0833-0.54487,2.0513-1.4103-1.1538c-0.778-0.636-1.411-1.83-1.411-2.619v-1.4103l-2.5641-1.1859c-1.4103-0.64256-2.5641-1.5638-2.5641-2.0513v-0.86538l2.6282-1.0256,2.6282-0.99359-0.73718-1.2821c-0.4018-0.70618-1.3956-2.0609-2.2115-3.0128l-1.4744-1.7308,0.67308-3.9423,0.67308-3.9744,3.6859-2.9487,3.7179-2.9487zm-22.66,12.66,2.3397,0,2.3718,0,1.2179,3.6859,1.2179,3.6859-1.891,3.4936c-1.0353,1.9225-2.1305,3.4936-2.4679,3.4936-0.69962,0-4.4329-3.9886-5.5128-5.8974l-0.70513-1.25,1.6987-3.6218,1.7308-3.5897zm120,39.805-1.67,3.34l-1.6667,3.3333v2.468c0,1.3607,0.47375,3.364,1.0577,4.4551l1.0577,1.9872h3.0449,3.0449v-2.0513-2.0513l-1.859-1.891-1.891-1.859,0.89744-2.4038,0.86538-2.4038-1.4423-1.4744-1.4423-1.4423zm-96.442,5.1282,1.1218,1.1218,1.0897,1.0898-1.7308,3.6538c-0.95333,1.9992-1.7308,4.3857-1.7308,5.3205v1.6987l1.3782-1.891,1.4103-1.891,1.1538,0.73718,1.1859,0.73718v1.9872,1.9872h-1.6667-1.6667l1.25,1.5064,1.25,1.5064-0.35256,1.0897-0.38462,1.1218-1.25-1.282-1.2821-1.282v-1.8269-1.859h-1.5705-1.5705l-0.57692-1.5385-0.612-1.55h-1.3462-1.3462l-0.67308,2.0513-0.64103,2.0513h-1.3782-1.3462l-0.60898-1.6346c-0.3424-0.89229-0.64102-2.0461-0.64102-2.5641v-0.92948h2.5,2.5l1.6026-1.6026,1.6026-1.6026v-2.4359-2.4359l2.1474-0.67307,2.1795-0.67308zm24.391,71.987,0,1.5705,0,0.70513c0.68024,0.10509,1.3666,0.19716,2.0513,0.28846v-0.60897-1.9551h-1.0256-1.0256zm7.0513,0.99359-1.0256,0.64102-1.0256,0.64103,0.25641,0.64102c1.8599,0.1871,3.7525,0.33293,5.641,0.41667l-0.70513-0.44872-3.141-1.891z"/>
<path fill="#bebebe" d="m75.224,25.064-2.2115,0.70513c-1.2265,0.38627-3.2166,0.67912-4.4231,0.64103l-2.2115-0.09615-0.54487,2.2115-0.57692,2.1795-2.6282-1.7308-2.6603-1.7308-0.99359,2.6603c-0.55688,1.4647-1.0256,3.0944-1.0256,3.6218,0,0.52738-0.43174,0.96154-0.96154,0.96154s-3.098,1.8462-5.7051,4.1026c-5.3992,4.6729-4.7068,4.4147-8.141,3.109l-2.6282-0.99359v-1.6026c0-0.88259,0.92308-3.4296,2.0513-5.641,1.1282-2.2115,2.0513-4.2788,2.0513-4.5833,0-1.0895-3.2292-0.52318-6.4103,1.1218l-3.236,1.698-0.385-1.186c-0.216-0.649-1.117-1.887-1.987-2.757l-0.833-0.865c-6.903,6.448-12.866,13.887-17.725,22.051l0.67308,0.1282,1.6987,0.35256-0.35256,2.0192c-0.19194,1.1078-0.99963,2.7633-1.7949,3.6538-0.79524,0.89057-1.4423,2.1894-1.4423,2.9167,0,0.72727-1.316,2.8519-2.9487,4.7115l-2.9808,3.3974-0.70513,5.1603-0.70513,5.1603,0.57692,0.96154c0.33023,0.53433,1.2567,4.3726,2.0513,8.5256l1.4423,7.5641-0.51282,2.6603-0.48077,2.6603,1.5385,4.4872c1.5523,4.512,6.7089,16.499,7.4038,17.212,0.20302,0.20817,1.1718-0.43467,2.1474-1.4103l1.7628-1.7628,1.9551,2.7244,1.9872,2.6923,1.3782-1.1218,1.3782-1.1538,2.1795,0.67307,2.1795,0.70513,1.4423-1.891,1.4744-1.891,2.8205,3.3333,2.8205,3.3654,1.3141-0.032h1.3141l0.99359,2.6282c0.55014,1.447,0.99359,3.0884,0.99359,3.6538v1.0256l-2.0513-0.64103-2.0513-0.64102v1.0577,1.0897l-2.6282,0.67308-2.6282,0.64103-1.0256,2.6923-1.0256,2.6602,1.9872,1.6346c1.0953,0.88689,2.7071,3.0048,3.5897,4.7115l1.6026,3.109,3.109-0.48077,3.0769-0.44872,1.6346-2.468,1.6346-2.5-2.0513-2.6282-2.0513-2.5962,0.09615-4.5513,0.0641-4.5192h1.3462c0.74132,0,1.6385,0.46154,1.9872,1.0256,0.34864,0.56411,1.3602,1.0256,2.2436,1.0256h1.6026l-0.60898-3.0128-0.57692-3.0128,3.4615-1.1538,3.4615-1.1218,3.9423,0.28846,3.9103,0.32052,0.32051-2.2436,0.32051-2.2436-2.0513-1.859c-1.1225-1.0219-2.7918-2.4728-3.7179-3.2372l-1.6667-1.4102,0.64103-3.8782,0.67308-3.8782-0.89744-0.57693-0.89744-0.54487-1.3462,0.83334-1.3462,0.83333-0.83333,3.9744c-0.45151,2.1841-1.6557,6.403-2.6923,9.359l-1.891,5.3526-0.80128,0.032c-0.43704,0.005-1.2076-1.124-1.7308-2.5l-0.96154-2.5-2.0833-1.1218-2.1154-1.1218v-2.0192-2.0192h0.99359,1.0256l1.5064-2.9487,1.5385-2.9487-1.7628,0.1282-1.7628,0.12821v-1.5385-1.5385l2.3077-0.32052c3.1228-0.4435,2.8869-1.39-0.86538-3.5256l-3.141-1.7949h-3.2372c-1.7876-0.0077-4.2035-0.26822-5.3526-0.57692l-2.0833-0.57692-1.7949-5.0321-1.7949-5.0641,1.6346-3.1731,1.6667-3.2051,0.19231-6.8269,0.16026-6.8269-3.5577-1.1538-3.5577-1.1538-0.96154-1.5064-0.96154-1.5385,3.2372-5.9615c1.7789-3.2844,3.2372-6.5313,3.2372-7.2115v-1.2179l2.5321-0.48077,2.5-0.48077,3.141,3.8782,3.109,3.8782-0.89744,2.4038c-0.5044,1.3267-1.6592,3.031-2.5641,3.7821-2.1324,1.7697-2.1069,3.3664,0.19231,6.3782l1.891,2.4359,1.8269,6.9551,1.859,6.9872,1.1538-0.38462,1.1538-0.38462,0.35256-2.2756,0.32051-2.2756-1.1538-1.4423-1.1859-1.4103,1.6987-2.5962,1.7308-2.5962v-3.3654l0.03205-3.3654,3.0769-2.5,3.109-2.5,1.25,1.7308c1.5638,2.1386,3.1962,2.2201,3.9744,0.19231l0.57692-1.5385h2.0833,2.0833v1.5385,1.5385h0.96154c0.53081,0,1.2539-0.46154,1.6026-1.0256l0.64103-1.0256h1.891,1.9231l1.0256-2.8205,1.0256-2.8205,0.09615,3.8782,0.0641,3.8782,1.6346,0.64103,1.6667,0.60897,0.92949-1.4103,0.92949-1.4423-0.41667-1.5385c-0.22539-0.84615-0.6907-2.2565-1.0577-3.141l-0.67308-1.6026,2.1795-2.7564,2.1474-2.7885,1.7949,2.2115,1.7949,2.2115,1.9551-2.5c1.0888-1.3763,2.7949-2.8297,3.7821-3.2051,2.2966-0.8733,2.2817-1.9918-0.1282-4.9679l-1.96-2.372-2.724,1.442-2.756,1.474-1.731-1.089-1.731-1.058-0.513-4.007-0.513-4.006-1.859-3.429-1.891-3.43zm41.763,19.167-0.35257,1.6987-0.32051,1.6987,2.2115,2.0833,2.2115,2.0513-0.73718,1.1859-0.73718,1.1859-2.2436-0.54487-2.2436-0.57692-1.891,5.5449-1.891,5.5449,1.7308,3.6538,1.7308,3.6538,1.0256,0c0.55534,0,1.168-0.57692,1.3782-1.2821,0.21024-0.70513,0.62764-2.0369,0.92949-2.9808l0.54487-1.7308,3.8782,1.9872c2.128,1.0849,4.5015,1.9551,5.2564,1.9551,0.75489,0,2.7507,0.72119,4.4551,1.6026l3.109,1.6026-2.5962,3.3974-2.5962,3.3974,0.80128,5.1282,0.80129,5.1282,2.7885,4.7115,2.7564,4.7115,4.1346,1.25,4.1346,1.218,0.99359,1.891,0.99359,1.859h1.25,1.25l2.4359-4.5513,2.4038-4.5513,1.5705-0.57692,1.5705-0.60897,2.5,1.6026,2.468,1.6346,1.5705-0.32051,1.5705-0.32051,1.3462-3.8462,1.3141-3.8782-0.89744-0.54487-0.92949-0.57692v-1.9231-1.891l1.6987-1.6987,1.6667-1.6987-2.9808-2.7244-3.0128-2.7564-1.3782-3.3333c-1.5326-3.7124-2.3247-4.0529-4.1987-1.7949-1.6917,2.0384-2.4526,1.9411-6.5385-0.73718l-3.4615-2.2436-0.67308-6.4744-0.67308-6.4744-1.1538-2.5321-1.1218-2.5321-1.9231-0.57692-1.891-0.60897-1.0577-2.0192-1.0898-2.0192-0.83333,0.51282-0.83333,0.54487-0.70513,4.359-0.70513,4.391-1.5705,2.4038c-0.86432,1.3206-1.7865,3.6037-2.0513,5.0641-0.64225,3.5418-1.2262,4.3269-3.141,4.3269h-1.6026l0.70512-6.1218,0.67308-6.1538-1.5705,0.60898-1.6026,0.60897v-2.1474-2.1795h0.96154c0.51709,0,1.1517,0.57692,1.4103,1.2821l0.44872,1.2821,1.0897-1.0256,1.0897-1.0256,0.32052-3.0769,0.32051-3.0769-4.6154-0.22436c-2.5385-0.12376-5.7548-0.35453-7.1474-0.51282l-2.532-0.28846zm-33.429,11.795-0.99359,2.5641-0.96154,2.5641,0.60897,1.5385,0.57692,1.5385,1.4423,0,1.4103,0,0,1.9231,0,1.9231,2.8205,0c1.5513,0.0065,3.6282-0.40954,4.6154-0.92949l1.7949-0.92949v-1.5705-1.5385l-3.3333-1.4103-3.3333-1.4103-1.2821-2.1474c1.497-1.877,0.441-2.823-0.133-2.823h-1.0256zm101.73,9.2308-2.1474,2.9808-2.1154,2.9808,0,2.1795,0,2.1795,1.6987,2.5962,1.6987,2.5641,2.1474-0.28846,2.1474-0.32051,0.89743-4.9679,0.89744-4.9359-1.1218-2.5-1.1218-2.4679-1.5064,0-1.4744,0zm-74.936,6.0897-2.5,0.64103-2.468,0.60897,0.51283,1.9872,0.51282,1.9551l0.81-0.577c-3.0255,0.25536-3.4406,0.4205-3.4615,1.4103l-0.032,1.0256,3.2692,2.2115c1.7951,1.2182,4.0909,2.4247,5.1282,2.6923,1.0373,0.26763,2.5092,0.54354,3.2372,0.60898l1.3141,0.1282,3.0449-2.2436c1.6695-1.2343,3.0128-2.6189,3.0128-3.0769v-0.83333h-2.2115-2.2436l-1.859-1.6987c-1.0316-0.93358-1.891-2.2874-1.891-3.0128,0-0.72543-0.42338-1.5905-0.96154-1.9231l-0.99359-0.60898zm-22.147,2.1154-0.09615,2.9167-0.09615,2.9487-3.0769,4.4872-3.0769,4.5192-0.60897,5.3846-0.64103,5.3846,1.891,0,1.859,0,1.3782-1.6346,1.3462-1.6026,2.8205,0.54487,2.8526,0.57692,0.64103-1.0577,0.64102-1.0577-1.6346-1.7949-1.6346-1.8269,0.03205-2.4679c0.01929-3.0501,0.70504-4.0952,4.391-6.4423l2.8846-1.8269-0.32051-2.2436-0.32051-2.2436-3.8462-0.32051-3.8462-0.32051v-0.96154c0-0.53005-0.34615-0.96287-0.76923-0.96154h-0.76923zm91.699,18.301-1.4744,0.54487-1.4423,0.54487-0.64103,2.6282-0.67308,2.5962-2.3397,0-2.3397,0-0.60898,1.6346c-0.34241,0.89229-0.64102,2.4485-0.64102,3.4615v1.8269l1.6026,1.3462,1.6346,1.3462-0.54487,1.9872-0.51283,1.9872,1.6026,2.4359,1.6026,2.4359h2.2756,2.2756l2.3718-5.6731c1.3161-3.1134,3.0321-6.1404,3.782-6.7628l1.3462-1.1538v-2.6923-2.6923l-3.6538-2.9167-3.6218-2.8846zm-98.94,19.682l-1.1538,0.70513-1.1859,0.73718v1.859,1.859l2.3077,1.6346,2.3077,1.6026-1.1218,0.83333c-0.6291,0.44793-1.4692,1.8277-1.859,3.0769l-0.70513,2.2756,2.2115,2.9808,2.2115,3.0128-0.70513,2.1474-0.67308,2.1795h-1.0256-1.0256l0.67308-2.1795,0.70513-2.1795-1.25-0.76923-1.2179-0.76923-2.9808,1.1218-2.9808,1.1218v1.3141,1.3141l2.0513,1.282,2.0513,1.25v1.4423,1.4102l-3.0449-0.60897-3.0128-0.60898-0.57692,0.89744-0.54487,0.92949,1.0256,2.6923,1.0256,2.7244,6.7949-0.48077,6.7949-0.51282,0.99359-0.99359,0.96154-0.96153-1.25-2.0513-1.2821-2.0192,1.1859-4.7115c0.65082-2.5846,1.1859-5.1468,1.1859-5.7051v-1.0256l-2.0833-0.64103-2.0513-0.67308,0.51282-5.2885,0.54487-5.3205-1.891-2.468-1.9231-2.4359zm13.141,86.538-0.57692,0.89744c1.0068,0.0867,2.0298,0.16775,3.0449,0.22436l-2.4679-1.1218z"/>
</svg>
