<svg xmlns="http://www.w3.org/2000/svg" version="1.1" viewBox="0 0 20 20"><path d="M 9 0 L 9 1.0625 C 4.8416284 1.529919 1.529919 4.8416284 1.0625 9 L 0 9 L 0 11 L 1.0625 11 C 1.529919 15.158372 4.8416284 18.470081 9 18.9375 L 9 20 L 11 20 L 11 18.9375 C 15.158372 18.470081 18.470081 15.158372 18.9375 11 L 20 11 L 20 9 L 18.9375 9 C 18.470081 4.8416284 15.158372 1.529919 11 1.0625 L 11 0 L 9 0 z M 9 3.09375 L 9 4 L 11 4 L 11 3.09375 C 14.061847 3.5338656 16.466134 5.9381525 16.90625 9 L 16 9 L 16 11 L 16.90625 11 C 16.466134 14.061847 14.061847 16.466134 11 16.90625 L 11 16 L 9 16 L 9 16.90625 C 5.9381525 16.466134 3.5338656 14.061847 3.09375 11 L 4 11 L 4 9 L 3.09375 9 C 3.5338656 5.9381525 5.9381525 3.5338656 9 3.09375 z"/></svg>